<svg width="550" height="284" viewBox="0 0 550 284" fill="none" xmlns="http://www.w3.org/2000/svg">
<path d="M9.82483 142.019C9.82483 228.578 27.0967 267.126 43.9473 267.126C60.7979 267.126 78.491 247.151 85.2312 143.421C91.9715 39.6912 101.239 10.9552 117.668 10.9552C134.098 10.9552 147.157 26.725 152.634 143.421C158.11 260.118 187.599 267.126 203.185 267.126C221.305 267.126 246.998 253.459 281.54 185.824C316.084 118.19 331.25 106.275 345.573 105.924C359.896 105.574 372.033 116.982 410.87 192.833C449.626 268.528 471.953 273.434 486.276 273.434C501.441 273.434 529.666 245.398 533.879 152.532" stroke="#12AA9C" stroke-width="15.2"/>
<path d="M9.82483 142.019C9.82483 228.578 27.0967 267.126 43.9473 267.126C60.7979 267.126 78.491 247.151 85.2312 143.421C91.9715 39.6912 101.239 10.9552 117.668 10.9552C134.098 10.9552 147.157 26.725 152.634 143.421C158.11 260.118 187.599 267.126 203.185 267.126C221.305 267.126 246.998 253.459 281.54 185.824C316.084 118.19 331.25 106.275 345.573 105.924C359.896 105.574 372.033 116.982 410.87 192.833C449.626 268.528 471.953 273.434 486.276 273.434C501.441 273.434 529.666 245.398 533.879 152.532" stroke="url(#paint0_linear_5_3)" stroke-width="15.2"/>
<path d="M9.82482 142.019C9.54398 101.018 18.6715 14.9909 59.5342 10.2543C105.03 4.98053 164.008 65.6237 226.777 136.763C289.545 207.902 343.467 267.476 383.066 268.528C422.665 269.579 444.149 204.397 458.893 143.421C473.637 82.4447 485.011 10.2543 507.339 10.2543C529.666 10.2543 538.091 59.6661 533.879 152.532" stroke="url(#paint1_linear_5_3)" stroke-width="15.2"/>
<defs>
<linearGradient id="paint0_linear_5_3" x1="534.739" y1="202.142" x2="35.7798" y2="195.263" gradientUnits="userSpaceOnUse">
<stop stop-color="#53AA8F"/>
<stop offset="0.130273" stop-color="#FCB03F"/>
<stop offset="0.264207" stop-color="#F47D2E"/>
<stop offset="0.40625" stop-color="#F16228"/>
<stop offset="0.664711" stop-color="#F38F1E"/>
<stop offset="0.757582" stop-color="#D09C44"/>
<stop offset="0.823788" stop-color="#A5A166"/>
<stop offset="0.877735" stop-color="#77A581"/>
<stop offset="1" stop-color="#EA972D" stop-opacity="0"/>
</linearGradient>
<linearGradient id="paint1_linear_5_3" x1="534.739" y1="202.142" x2="35.7798" y2="195.263" gradientUnits="userSpaceOnUse">
<stop stop-color="#53AA8F"/>
<stop offset="1" stop-color="#12AB9D"/>
</linearGradient>
</defs>
</svg>
