<svg width="574" height="444" viewBox="0 0 574 444" fill="none" xmlns="http://www.w3.org/2000/svg">
<g clip-path="url(#clip0_2_2)">
<path d="M11.0065 149.037C11.0065 240.151 29.1874 280.728 46.9249 280.728C64.6624 280.728 83.2867 259.702 90.3817 150.512C97.4767 41.3232 107.232 11.0747 124.526 11.0747C141.82 11.0747 155.567 27.6745 161.332 150.512C167.096 273.351 198.137 280.728 214.544 280.728C233.617 280.728 260.662 266.342 297.023 195.147C333.385 123.953 349.349 111.411 364.426 111.042C379.503 110.673 392.278 122.682 433.159 202.525C473.955 282.204 497.457 287.368 512.534 287.368C528.497 287.368 558.208 257.857 562.642 160.103" stroke="#12AA9C" stroke-width="16"/>
<path d="M11.0065 149.037C11.0065 240.151 29.1874 280.728 46.9249 280.728C64.6624 280.728 83.2867 259.702 90.3817 150.512C97.4767 41.3232 107.232 11.0747 124.526 11.0747C141.82 11.0747 155.567 27.6745 161.332 150.512C167.096 273.351 198.137 280.728 214.544 280.728C233.617 280.728 260.662 266.342 297.023 195.147C333.385 123.953 349.349 111.411 364.426 111.042C379.503 110.673 392.278 122.682 433.159 202.525C473.955 282.204 497.457 287.368 512.534 287.368C528.497 287.368 558.208 257.857 562.642 160.103" stroke="url(#paint0_linear_2_2)" stroke-width="16"/>
<path d="M11.0065 149.037C10.7109 105.878 20.3188 15.3228 63.3322 10.3369C111.223 4.78561 173.305 68.6205 239.377 143.504C305.449 218.387 362.209 281.097 403.892 282.204C445.575 283.31 468.19 214.698 483.71 150.512C499.23 86.3268 511.203 10.3369 534.706 10.3369C558.208 10.3369 567.076 62.3494 562.642 160.103" stroke="url(#paint1_linear_2_2)" stroke-width="16"/>
<path d="M44.7012 331.095L41.4413 370.368H33.0422L19.849 348.545H19.5997L17.778 370.368H7.78717L11.0471 331.095H19.5997L32.6395 352.86H32.9463L34.7297 331.095H44.7012ZM60.1526 370.905C57.0461 370.905 54.4189 370.304 52.2712 369.102C50.1363 367.888 48.5574 366.149 47.5347 363.886C46.512 361.611 46.1349 358.894 46.4033 355.737C46.659 352.694 47.4836 350.035 48.877 347.759C50.2833 345.484 52.1434 343.713 54.4573 342.447C56.7712 341.169 59.4303 340.53 62.4346 340.53C64.5695 340.53 66.4935 340.869 68.2066 341.546C69.9197 342.211 71.3579 343.189 72.5212 344.48C73.6846 345.771 74.5347 347.35 75.0716 349.217C75.6086 351.083 75.7812 353.212 75.5894 355.602L75.3976 357.98H49.5099L49.9509 352.381H66.6917C66.7684 351.447 66.615 350.623 66.2314 349.907C65.8607 349.178 65.3174 348.609 64.6015 348.2C63.8856 347.791 63.0482 347.587 62.0894 347.587C61.1178 347.587 60.2229 347.804 59.4047 348.239C58.5993 348.661 57.9346 349.242 57.4104 349.984C56.8863 350.712 56.5731 351.556 56.4708 352.515L55.9339 358.344C55.8444 359.457 55.9786 360.428 56.3366 361.259C56.7073 362.09 57.2826 362.736 58.0624 363.196C58.8422 363.643 59.801 363.867 60.9388 363.867C61.7187 363.867 62.441 363.759 63.1057 363.541C63.7833 363.324 64.3714 363.004 64.8699 362.582C65.3685 362.161 65.7584 361.643 66.0397 361.029L75.0908 361.163C74.5667 363.145 73.6334 364.864 72.2911 366.322C70.9488 367.779 69.2485 368.911 67.1903 369.716C65.1448 370.509 62.7989 370.905 60.1526 370.905ZM83.2457 370.368L78.1448 340.913H88.0589L90.2258 359.399H90.4751L96.0553 340.913H105.72L108.347 359.246H108.597L113.717 340.913H123.631L113.621 370.368H102.997L99.9673 353.781H99.6413L93.8501 370.368H83.2457ZM143.919 370.368L135.693 331.095H146.777L150.401 356.158H150.708L159.375 331.095H168.273L172.799 356.235H173.125L180.891 331.095H191.956L177.209 370.368H167.621L162.654 347.337H162.348L153.507 370.368H143.919ZM202.234 370.905C199.102 370.905 196.462 370.272 194.314 369.006C192.179 367.728 190.607 365.951 189.597 363.675C188.587 361.387 188.204 358.734 188.447 355.717C188.702 352.688 189.52 350.035 190.901 347.759C192.282 345.484 194.148 343.713 196.5 342.447C198.853 341.169 201.595 340.53 204.727 340.53C207.859 340.53 210.493 341.169 212.628 342.447C214.775 343.713 216.354 345.49 217.364 347.778C218.387 350.067 218.77 352.719 218.515 355.737C218.272 358.754 217.454 361.406 216.06 363.695C214.667 365.97 212.794 367.741 210.442 369.006C208.102 370.272 205.366 370.905 202.234 370.905ZM202.848 363.522C203.896 363.522 204.81 363.196 205.59 362.544C206.383 361.892 207.022 360.978 207.508 359.802C208.006 358.613 208.319 357.226 208.447 355.641C208.575 354.043 208.492 352.662 208.198 351.499C207.904 350.322 207.418 349.408 206.741 348.756C206.076 348.104 205.226 347.778 204.19 347.778C203.129 347.778 202.196 348.111 201.39 348.776C200.585 349.428 199.939 350.342 199.454 351.518C198.968 352.694 198.661 354.081 198.533 355.679C198.393 357.264 198.469 358.645 198.763 359.821C199.057 360.997 199.55 361.911 200.24 362.563C200.93 363.202 201.8 363.522 202.848 363.522ZM221.113 370.368L223.568 340.913H233.156L232.715 346.379H233.022C233.725 344.384 234.709 342.914 235.975 341.968C237.253 341.009 238.691 340.53 240.289 340.53C240.737 340.53 241.184 340.562 241.632 340.626C242.079 340.677 242.501 340.76 242.897 340.875L242.188 349.408C241.715 349.242 241.114 349.114 240.385 349.025C239.657 348.935 239.011 348.891 238.448 348.891C237.362 348.891 236.371 349.134 235.476 349.619C234.594 350.092 233.865 350.764 233.29 351.633C232.728 352.489 232.395 353.493 232.293 354.643L230.989 370.368H221.113ZM256.431 331.095L253.171 370.368H243.295L246.555 331.095H256.431ZM268.795 370.771C266.647 370.771 264.73 370.215 263.042 369.102C261.368 367.99 260.096 366.315 259.226 364.078C258.357 361.828 258.063 359.016 258.344 355.641C258.638 352.151 259.424 349.293 260.703 347.069C261.994 344.832 263.566 343.183 265.42 342.121C267.287 341.06 269.223 340.53 271.23 340.53C272.739 340.53 274.017 340.792 275.066 341.316C276.127 341.827 276.983 342.505 277.635 343.349C278.3 344.18 278.779 345.062 279.074 345.995H279.265L280.493 331.095H290.387L287.128 370.368H277.328L277.731 365.574H277.463C276.977 366.52 276.331 367.389 275.526 368.182C274.721 368.962 273.755 369.588 272.63 370.061C271.505 370.534 270.227 370.771 268.795 370.771ZM272.937 363.119C274.011 363.119 274.951 362.813 275.756 362.199C276.574 361.585 277.233 360.722 277.731 359.61C278.243 358.485 278.556 357.162 278.671 355.641C278.811 354.094 278.722 352.764 278.402 351.652C278.083 350.54 277.565 349.683 276.849 349.082C276.133 348.482 275.238 348.181 274.164 348.181C273.091 348.181 272.151 348.488 271.346 349.102C270.54 349.702 269.895 350.559 269.409 351.671C268.936 352.783 268.635 354.107 268.507 355.641C268.38 357.175 268.463 358.504 268.757 359.629C269.064 360.741 269.569 361.604 270.272 362.218C270.975 362.819 271.863 363.119 272.937 363.119ZM340.399 345.535H330.37C330.344 344.576 330.185 343.719 329.891 342.965C329.597 342.198 329.175 341.54 328.625 340.99C328.075 340.44 327.398 340.018 326.592 339.724C325.8 339.43 324.886 339.283 323.85 339.283C321.958 339.283 320.296 339.75 318.864 340.683C317.433 341.616 316.282 342.959 315.413 344.71C314.543 346.462 314.006 348.565 313.802 351.019C313.61 353.487 313.783 355.551 314.32 357.213C314.869 358.862 315.739 360.102 316.928 360.933C318.129 361.764 319.599 362.18 321.338 362.18C322.412 362.18 323.39 362.052 324.272 361.796C325.167 361.528 325.96 361.144 326.65 360.646C327.34 360.134 327.922 359.521 328.395 358.805C328.868 358.089 329.213 357.29 329.43 356.408L339.517 356.427C339.223 358.127 338.603 359.834 337.657 361.547C336.711 363.26 335.458 364.826 333.898 366.245C332.339 367.651 330.479 368.783 328.318 369.639C326.158 370.483 323.71 370.905 320.974 370.905C317.356 370.905 314.179 370.112 311.443 368.527C308.72 366.942 306.656 364.628 305.249 361.585C303.843 358.53 303.319 354.816 303.677 350.444C304.035 346.136 305.153 342.505 307.033 339.552C308.912 336.599 311.309 334.362 314.224 332.84C317.139 331.319 320.315 330.558 323.754 330.558C326.222 330.558 328.465 330.891 330.485 331.555C332.505 332.22 334.25 333.192 335.72 334.47C337.19 335.749 338.328 337.315 339.134 339.168C339.952 341.022 340.374 343.144 340.399 345.535ZM350.802 370.368H340.064L356.459 331.095H369.902L379.778 370.368H369.039L362.5 341.374H362.193L350.802 370.368ZM350.419 354.893H371.877L371.225 362.429H349.767L350.419 354.893ZM397.856 370.368H382.975L386.235 331.095H400.828C404.843 331.095 408.25 331.894 411.049 333.492C413.849 335.077 415.92 337.359 417.262 340.338C418.617 343.304 419.122 346.852 418.777 350.981C418.445 355.033 417.377 358.511 415.575 361.413C413.785 364.302 411.382 366.52 408.365 368.067C405.348 369.601 401.845 370.368 397.856 370.368ZM393.656 361.873H397.99C400.087 361.873 401.902 361.515 403.436 360.799C404.983 360.07 406.217 358.875 407.137 357.213C408.058 355.538 408.633 353.288 408.863 350.463C409.093 347.715 408.895 345.554 408.269 343.982C407.642 342.396 406.62 341.271 405.201 340.607C403.781 339.929 401.985 339.59 399.812 339.59H395.517L393.656 361.873ZM441.611 329.254L425.082 376.274H416.682L433.212 329.254H441.611ZM478.698 345.535H468.669C468.644 344.576 468.484 343.719 468.19 342.965C467.896 342.198 467.474 341.54 466.924 340.99C466.374 340.44 465.697 340.018 464.891 339.724C464.099 339.43 463.185 339.283 462.149 339.283C460.257 339.283 458.595 339.75 457.163 340.683C455.732 341.616 454.581 342.959 453.712 344.71C452.842 346.462 452.305 348.565 452.101 351.019C451.909 353.487 452.082 355.551 452.619 357.213C453.168 358.862 454.038 360.102 455.227 360.933C456.428 361.764 457.899 362.18 459.637 362.18C460.711 362.18 461.689 362.052 462.571 361.796C463.466 361.528 464.259 361.144 464.949 360.646C465.639 360.134 466.221 359.521 466.694 358.805C467.167 358.089 467.512 357.29 467.73 356.408L477.816 356.427C477.522 358.127 476.902 359.834 475.956 361.547C475.01 363.26 473.757 364.826 472.198 366.245C470.638 367.651 468.778 368.783 466.617 369.639C464.457 370.483 462.009 370.905 459.273 370.905C455.655 370.905 452.478 370.112 449.742 368.527C447.019 366.942 444.955 364.628 443.548 361.585C442.142 358.53 441.618 354.816 441.976 350.444C442.334 346.136 443.453 342.505 445.332 339.552C447.211 336.599 449.608 334.362 452.523 332.84C455.438 331.319 458.614 330.558 462.053 330.558C464.521 330.558 466.764 330.891 468.784 331.555C470.804 332.22 472.549 333.192 474.019 334.47C475.489 335.749 476.627 337.315 477.433 339.168C478.251 341.022 478.673 343.144 478.698 345.535ZM489.102 370.368H478.363L494.758 331.095H508.201L518.077 370.368H507.338L500.799 341.374H500.492L489.102 370.368ZM488.718 354.893H510.176L509.524 362.429H488.066L488.718 354.893ZM524.534 331.095H536.941L544.612 354.548H545.072L556.635 331.095H569.023L565.763 370.368H556.022L557.978 346.839H557.652L546.587 370.099H540.527L533.317 346.705H533.01L531.016 370.368H521.274L524.534 331.095ZM82.9357 433.368H69.7233L72.9833 394.095H86.3299C90.2162 394.095 93.4953 394.888 96.1672 396.473C98.8391 398.058 100.808 400.327 102.073 403.281C103.339 406.234 103.799 409.762 103.454 413.866C103.122 417.931 102.086 421.421 100.348 424.336C98.6218 427.251 96.2823 429.488 93.3291 431.048C90.3888 432.594 86.9243 433.368 82.9357 433.368ZM76.9527 427.519H82.9357C85.7482 427.519 88.1452 426.989 90.1267 425.928C92.1083 424.866 93.6551 423.3 94.7674 421.229C95.8924 419.146 96.5827 416.563 96.8384 413.482C97.0941 410.491 96.8448 407.991 96.0905 405.984C95.3362 403.977 94.0834 402.469 92.332 401.459C90.5933 400.449 88.3625 399.944 85.6395 399.944H79.2347L76.9527 427.519ZM120.261 433.962C117.333 433.962 114.853 433.342 112.82 432.102C110.8 430.849 109.311 429.092 108.352 426.829C107.406 424.553 107.061 421.881 107.317 418.813C107.572 415.796 108.365 413.137 109.695 410.836C111.024 408.535 112.782 406.745 114.968 405.467C117.154 404.175 119.634 403.53 122.408 403.53C124.185 403.53 125.847 403.817 127.394 404.393C128.954 404.955 130.303 405.837 131.44 407.039C132.591 408.241 133.441 409.781 133.991 411.661C134.553 413.527 134.726 415.771 134.509 418.391L134.336 420.482H110.423L110.788 415.937H128.372C128.487 414.543 128.302 413.31 127.816 412.236C127.33 411.149 126.595 410.293 125.611 409.666C124.639 409.04 123.457 408.727 122.063 408.727C120.619 408.727 119.308 409.091 118.132 409.82C116.969 410.536 116.023 411.469 115.294 412.619C114.578 413.77 114.163 414.997 114.048 416.301L113.664 420.386C113.511 422.252 113.702 423.805 114.239 425.045C114.776 426.286 115.601 427.219 116.713 427.845C117.838 428.459 119.193 428.766 120.778 428.766C121.827 428.766 122.786 428.619 123.655 428.325C124.524 428.031 125.285 427.59 125.937 427.001C126.602 426.413 127.132 425.685 127.528 424.815L133.588 425.64C133.038 427.315 132.143 428.778 130.903 430.031C129.663 431.271 128.142 432.237 126.34 432.927C124.537 433.617 122.511 433.962 120.261 433.962ZM165.827 403.913L152.806 433.368H145.634L137.523 403.913H144.388L149.546 426.043H149.853L158.693 403.913H165.827ZM179.167 433.962C176.24 433.962 173.759 433.342 171.727 432.102C169.707 430.849 168.218 429.092 167.259 426.829C166.313 424.553 165.968 421.881 166.223 418.813C166.479 415.796 167.272 413.137 168.601 410.836C169.931 408.535 171.688 406.745 173.874 405.467C176.061 404.175 178.541 403.53 181.315 403.53C183.092 403.53 184.754 403.817 186.301 404.393C187.86 404.955 189.209 405.837 190.347 407.039C191.497 408.241 192.347 409.781 192.897 411.661C193.46 413.527 193.632 415.771 193.415 418.391L193.242 420.482H169.33L169.694 415.937H187.279C187.394 414.543 187.208 413.31 186.722 412.236C186.237 411.149 185.502 410.293 184.517 409.666C183.546 409.04 182.363 408.727 180.97 408.727C179.525 408.727 178.215 409.091 177.039 409.82C175.875 410.536 174.929 411.469 174.2 412.619C173.485 413.77 173.069 414.997 172.954 416.301L172.571 420.386C172.417 422.252 172.609 423.805 173.146 425.045C173.683 426.286 174.507 427.219 175.62 427.845C176.745 428.459 178.1 428.766 179.685 428.766C180.733 428.766 181.692 428.619 182.561 428.325C183.431 428.031 184.191 427.59 184.843 427.001C185.508 426.413 186.039 425.685 186.435 424.815L192.495 425.64C191.945 427.315 191.05 428.778 189.81 430.031C188.57 431.271 187.048 432.237 185.246 432.927C183.443 433.617 181.417 433.962 179.167 433.962ZM206.976 394.095L203.716 433.368H197.139L200.399 394.095H206.976ZM222.699 433.962C219.848 433.962 217.419 433.323 215.412 432.045C213.418 430.766 211.935 428.983 210.963 426.695C210.004 424.393 209.653 421.715 209.909 418.66C210.151 415.63 210.931 412.984 212.248 410.721C213.578 408.445 215.335 406.681 217.521 405.428C219.708 404.163 222.207 403.53 225.019 403.53C227.883 403.53 230.312 404.169 232.306 405.447C234.301 406.726 235.784 408.516 236.755 410.817C237.727 413.118 238.085 415.803 237.829 418.871C237.586 421.888 236.8 424.528 235.47 426.791C234.141 429.053 232.383 430.817 230.197 432.083C228.024 433.336 225.524 433.962 222.699 433.962ZM222.968 428.631C224.629 428.631 226.048 428.184 227.225 427.289C228.401 426.381 229.328 425.173 230.005 423.665C230.683 422.156 231.092 420.482 231.232 418.641C231.386 416.825 231.258 415.176 230.849 413.693C230.44 412.21 229.737 411.028 228.74 410.146C227.742 409.251 226.426 408.803 224.789 408.803C223.127 408.803 221.702 409.257 220.513 410.165C219.324 411.072 218.391 412.287 217.713 413.808C217.048 415.317 216.639 416.998 216.486 418.852C216.345 420.654 216.473 422.297 216.869 423.78C217.279 425.25 217.982 426.426 218.979 427.308C219.989 428.19 221.318 428.631 222.968 428.631ZM240.694 444.413L244.089 403.913H250.532L250.129 408.746H250.57C250.967 408.068 251.516 407.327 252.219 406.521C252.935 405.703 253.875 405 255.038 404.412C256.202 403.824 257.665 403.53 259.43 403.53C261.731 403.53 263.751 404.118 265.489 405.294C267.241 406.457 268.557 408.17 269.44 410.433C270.334 412.696 270.648 415.451 270.379 418.698C270.123 421.907 269.369 424.649 268.116 426.925C266.864 429.188 265.266 430.92 263.322 432.121C261.392 433.31 259.263 433.905 256.937 433.905C255.211 433.905 253.811 433.617 252.737 433.042C251.663 432.467 250.832 431.783 250.244 430.99C249.656 430.185 249.209 429.437 248.902 428.746H248.576L247.272 444.413H240.694ZM249.305 418.641C249.138 420.597 249.273 422.316 249.707 423.799C250.142 425.269 250.858 426.42 251.855 427.251C252.865 428.069 254.137 428.478 255.671 428.478C257.256 428.478 258.618 428.05 259.756 427.193C260.893 426.337 261.795 425.167 262.459 423.684C263.137 422.201 263.559 420.52 263.725 418.641C263.878 416.774 263.738 415.112 263.303 413.655C262.881 412.197 262.172 411.053 261.175 410.222C260.177 409.379 258.88 408.957 257.282 408.957C255.735 408.957 254.393 409.359 253.255 410.165C252.117 410.97 251.209 412.095 250.532 413.54C249.867 414.984 249.458 416.685 249.305 418.641ZM274.179 433.368L276.634 403.913H282.924L282.502 408.842H282.866C283.621 407.18 284.739 405.882 286.222 404.949C287.705 404.003 289.431 403.53 291.4 403.53C293.368 403.53 294.998 404.003 296.29 404.949C297.581 405.895 298.45 407.192 298.898 408.842H299.204C299.997 407.231 301.211 405.946 302.848 404.987C304.484 404.016 306.37 403.53 308.505 403.53C311.189 403.53 313.312 404.38 314.871 406.08C316.444 407.781 317.089 410.286 316.808 413.597L315.159 433.368H308.601L310.192 414.499C310.333 412.619 309.93 411.251 308.984 410.395C308.051 409.526 306.868 409.091 305.437 409.091C303.698 409.091 302.298 409.628 301.237 410.702C300.189 411.776 299.594 413.163 299.454 414.863L297.9 433.368H291.438L293.049 414.192C293.177 412.645 292.806 411.411 291.937 410.491C291.08 409.558 289.891 409.091 288.37 409.091C287.347 409.091 286.388 409.359 285.493 409.896C284.599 410.42 283.857 411.156 283.269 412.102C282.694 413.035 282.355 414.128 282.253 415.381L280.738 433.368H274.179ZM334.238 433.962C331.31 433.962 328.83 433.342 326.797 432.102C324.778 430.849 323.288 429.092 322.329 426.829C321.383 424.553 321.038 421.881 321.294 418.813C321.55 415.796 322.342 413.137 323.672 410.836C325.001 408.535 326.759 406.745 328.945 405.467C331.131 404.175 333.611 403.53 336.386 403.53C338.163 403.53 339.824 403.817 341.371 404.393C342.931 404.955 344.28 405.837 345.417 407.039C346.568 408.241 347.418 409.781 347.968 411.661C348.53 413.527 348.703 415.771 348.486 418.391L348.313 420.482H324.4L324.765 415.937H342.349C342.464 414.543 342.279 413.31 341.793 412.236C341.307 411.149 340.572 410.293 339.588 409.666C338.616 409.04 337.434 408.727 336.04 408.727C334.596 408.727 333.285 409.091 332.109 409.82C330.946 410.536 330 411.469 329.271 412.619C328.555 413.77 328.14 414.997 328.025 416.301L327.641 420.386C327.488 422.252 327.68 423.805 328.217 425.045C328.753 426.286 329.578 427.219 330.69 427.845C331.815 428.459 333.17 428.766 334.756 428.766C335.804 428.766 336.763 428.619 337.632 428.325C338.501 428.031 339.262 427.59 339.914 427.001C340.579 426.413 341.109 425.685 341.506 424.815L347.565 425.64C347.016 427.315 346.121 428.778 344.881 430.031C343.641 431.271 342.119 432.237 340.317 432.927C338.514 433.617 336.488 433.962 334.238 433.962ZM360.225 416.033L358.787 433.368H352.228L354.683 403.913H360.973L360.551 408.842H360.915C361.708 407.231 362.884 405.946 364.444 404.987C366.016 404.016 367.902 403.53 370.101 403.53C372.121 403.53 373.846 403.958 375.278 404.815C376.723 405.671 377.797 406.924 378.5 408.573C379.203 410.222 379.459 412.242 379.267 414.633L377.694 433.368H371.136L372.613 415.572C372.779 413.553 372.389 411.974 371.443 410.836C370.497 409.685 369.097 409.11 367.243 409.11C365.991 409.11 364.859 409.385 363.849 409.935C362.839 410.472 362.015 411.258 361.375 412.293C360.736 413.329 360.353 414.575 360.225 416.033ZM400.7 403.913L400.278 409.033H383.614L384.036 403.913H400.7ZM388.83 396.857H395.388L393.087 424.585C393.01 425.57 393.099 426.317 393.355 426.829C393.611 427.34 393.975 427.692 394.448 427.884C394.934 428.063 395.477 428.152 396.078 428.152C396.513 428.152 396.909 428.12 397.267 428.056C397.625 427.992 397.906 427.941 398.111 427.903L398.82 433.099C398.437 433.227 397.906 433.362 397.229 433.502C396.551 433.656 395.733 433.745 394.774 433.771C393.099 433.809 391.604 433.541 390.287 432.965C388.97 432.377 387.96 431.482 387.257 430.281C386.554 429.079 386.286 427.564 386.452 425.736L388.83 396.857ZM416.148 433.368L419.408 394.095H426.158L423.358 427.673H440.828L440.348 433.368H416.148ZM460.899 403.913L460.477 409.033H443.813L444.235 403.913H460.899ZM449.029 396.857H455.587L453.286 424.585C453.209 425.57 453.299 426.317 453.555 426.829C453.81 427.34 454.175 427.692 454.648 427.884C455.133 428.063 455.677 428.152 456.278 428.152C456.712 428.152 457.109 428.12 457.467 428.056C457.824 427.992 458.106 427.941 458.31 427.903L459.02 433.099C458.636 433.227 458.106 433.362 457.428 433.502C456.751 433.656 455.932 433.745 454.974 433.771C453.299 433.809 451.803 433.541 450.486 432.965C449.17 432.377 448.16 431.482 447.457 430.281C446.753 429.079 446.485 427.564 446.651 425.736L449.029 396.857ZM473.985 433.905C471.646 433.905 469.607 433.31 467.868 432.121C466.13 430.92 464.826 429.188 463.956 426.925C463.087 424.649 462.787 421.907 463.055 418.698C463.323 415.451 464.091 412.696 465.356 410.433C466.622 408.17 468.22 406.457 470.15 405.294C472.093 404.118 474.216 403.53 476.517 403.53C478.281 403.53 479.694 403.824 480.755 404.412C481.828 405 482.653 405.703 483.228 406.521C483.804 407.327 484.238 408.068 484.532 408.746H484.839L486.047 394.095H492.605L489.346 433.368H482.922L483.305 428.746H482.883C482.461 429.437 481.886 430.185 481.157 430.99C480.429 431.783 479.483 432.467 478.319 433.042C477.156 433.617 475.711 433.905 473.985 433.905ZM476.114 428.478C477.635 428.478 478.965 428.069 480.103 427.251C481.253 426.42 482.174 425.269 482.864 423.799C483.554 422.316 483.983 420.597 484.149 418.641C484.315 416.685 484.174 414.984 483.727 413.54C483.292 412.095 482.57 410.97 481.56 410.165C480.55 409.359 479.265 408.957 477.706 408.957C476.12 408.957 474.759 409.379 473.621 410.222C472.483 411.053 471.588 412.197 470.936 413.655C470.284 415.112 469.882 416.774 469.728 418.641C469.575 420.52 469.703 422.201 470.112 423.684C470.534 425.167 471.243 426.337 472.24 427.193C473.238 428.05 474.529 428.478 476.114 428.478ZM500.27 433.771C499.132 433.771 498.173 433.374 497.393 432.582C496.614 431.789 496.236 430.824 496.262 429.686C496.275 428.561 496.697 427.609 497.528 426.829C498.359 426.036 499.337 425.64 500.462 425.64C501.561 425.64 502.507 426.036 503.3 426.829C504.105 427.621 504.489 428.574 504.45 429.686C504.425 430.44 504.214 431.131 503.817 431.757C503.434 432.371 502.929 432.863 502.302 433.234C501.676 433.592 500.998 433.771 500.27 433.771Z" fill="#515151" fill-opacity="0.85"/>
</g>
<defs>
<linearGradient id="paint0_linear_2_2" x1="563.548" y1="212.324" x2="38.3276" y2="205.083" gradientUnits="userSpaceOnUse">
<stop stop-color="#53AA8F"/>
<stop offset="0.130273" stop-color="#FCB03F"/>
<stop offset="0.264207" stop-color="#F47D2E"/>
<stop offset="0.40625" stop-color="#F16228"/>
<stop offset="0.664711" stop-color="#F38F1E"/>
<stop offset="0.757582" stop-color="#D09C44"/>
<stop offset="0.823788" stop-color="#A5A166"/>
<stop offset="0.877735" stop-color="#77A581"/>
<stop offset="1" stop-color="#EA972D" stop-opacity="0"/>
</linearGradient>
<linearGradient id="paint1_linear_2_2" x1="563.548" y1="212.324" x2="38.3276" y2="205.083" gradientUnits="userSpaceOnUse">
<stop stop-color="#53AA8F"/>
<stop offset="1" stop-color="#12AB9D"/>
</linearGradient>
<clipPath id="clip0_2_2">
<rect width="574" height="444" fill="white"/>
</clipPath>
</defs>
</svg>
