<svg width="214" height="124" viewBox="0 0 214 124" fill="none" xmlns="http://www.w3.org/2000/svg">
<path d="M7.00237 62.14C6.8954 45.0236 10.3718 9.11096 25.9354 7.13362C43.2639 4.93205 65.7268 30.248 89.6337 59.9456C113.541 89.6431 134.078 114.513 149.16 114.952C164.243 115.391 172.425 88.1802 178.041 62.7251C183.657 37.2701 187.989 7.13361 196.493 7.13361C204.997 7.13361 208.206 27.761 206.601 66.5288C204.997 105.297 194.246 117 188.47 117C183.015 117 174.511 114.952 159.75 83.3525C144.958 51.6878 140.336 46.9254 134.88 47.0717C129.425 47.218 123.649 52.192 110.492 80.4266C97.3353 108.661 87.5497 114.367 80.6485 114.367C74.7119 114.367 63.4805 111.441 61.3946 62.7251C59.3088 14.0094 54.3349 7.4262 48.0773 7.4262C41.8198 7.4262 38.2899 19.4223 35.7228 62.7251C33.1556 106.028 26.4167 114.367 19.9987 114.367C13.5808 114.367 7.00237 98.2744 7.00237 62.14Z" stroke="black" stroke-width="14"/>
<path d="M7.00237 62.14C6.8954 45.0236 10.3718 9.11096 25.9354 7.13362C43.2639 4.93205 65.7268 30.248 89.6337 59.9456C113.541 89.6431 134.078 114.513 149.16 114.952C164.243 115.391 172.425 88.1802 178.041 62.7251C183.657 37.2701 187.989 7.13361 196.493 7.13361C204.997 7.13361 208.206 27.761 206.601 66.5288C204.997 105.297 194.246 117 188.47 117C183.015 117 174.511 114.952 159.75 83.3525C144.958 51.6878 140.336 46.9254 134.88 47.0717C129.425 47.218 123.649 52.192 110.492 80.4266C97.3353 108.661 87.5497 114.367 80.6485 114.367C74.7119 114.367 63.4805 111.441 61.3946 62.7251C59.3088 14.0094 54.3349 7.4262 48.0773 7.4262C41.8198 7.4262 38.2899 19.4223 35.7228 62.7251C33.1556 106.028 26.4167 114.367 19.9987 114.367C13.5808 114.367 7.00237 98.2744 7.00237 62.14Z" stroke="url(#paint0_radial_319_2)" stroke-width="14"/>
<path d="M7.00237 62.14C6.8954 45.0236 10.3718 9.11096 25.9354 7.13362C43.2639 4.93205 65.7268 30.248 89.6337 59.9456C113.541 89.6431 134.078 114.513 149.16 114.952C164.243 115.391 172.425 88.1802 178.041 62.7251C183.657 37.2701 187.989 7.13361 196.493 7.13361C204.997 7.13361 208.206 27.761 206.601 66.5288C204.997 105.297 194.246 117 188.47 117C183.015 117 174.511 114.952 159.75 83.3525C144.958 51.6878 140.336 46.9254 134.88 47.0717C129.425 47.218 123.649 52.192 110.492 80.4266C97.3353 108.661 87.5497 114.367 80.6485 114.367C74.7119 114.367 63.4805 111.441 61.3946 62.7251C59.3088 14.0094 54.3349 7.4262 48.0773 7.4262C41.8198 7.4262 38.2899 19.4223 35.7228 62.7251C33.1556 106.028 26.4167 114.367 19.9987 114.367C13.5808 114.367 7.00237 98.2744 7.00237 62.14Z" stroke="url(#paint1_linear_319_2)" stroke-opacity="0.2" stroke-width="14"/>
<path d="M7.00237 62.14C6.8954 45.0236 10.3718 9.11096 25.9354 7.13362C43.2639 4.93205 65.7268 30.248 89.6337 59.9456C113.541 89.6431 134.078 114.513 149.16 114.952C164.243 115.391 172.425 88.1802 178.041 62.7251C183.657 37.2701 187.989 7.13361 196.493 7.13361C204.997 7.13361 208.206 27.761 206.601 66.5288C204.997 105.297 194.246 117 188.47 117C183.015 117 174.511 114.952 159.75 83.3525C144.958 51.6878 140.336 46.9254 134.88 47.0717C129.425 47.218 123.649 52.192 110.492 80.4266C97.3353 108.661 87.5497 114.367 80.6485 114.367C74.7119 114.367 63.4805 111.441 61.3946 62.7251C59.3088 14.0094 54.3349 7.4262 48.0773 7.4262C41.8198 7.4262 38.2899 19.4223 35.7228 62.7251C33.1556 106.028 26.4167 114.367 19.9987 114.367C13.5808 114.367 7.00237 98.2744 7.00237 62.14Z" stroke="#94F9FF" stroke-opacity="0.05" stroke-width="14" style="mix-blend-mode:lighten"/>
<defs>
<radialGradient id="paint0_radial_319_2" cx="0" cy="0" r="1" gradientUnits="userSpaceOnUse" gradientTransform="translate(167.5 -23.1011) rotate(115.346) scale(286.16 521.838)">
<stop stop-color="#59ACE8"/>
<stop offset="1" stop-color="#0044AB"/>
</radialGradient>
<linearGradient id="paint1_linear_319_2" x1="106.962" y1="167.179" x2="106.962" y2="72.9657" gradientUnits="userSpaceOnUse">
<stop stop-color="#103EB3"/>
<stop offset="1" stop-opacity="0"/>
</linearGradient>
</defs>
</svg>
